<svg xmlns="http://www.w3.org/2000/svg" width="30" height="29.958" viewBox="0 0 30 29.958">
  <path id="codepen" d="M29.966,9.487a.953.953,0,0,0-.449-.8C15.226.21,15.428-.422,14.5.139,3.669,6.872.655,8.374.222,8.9-.172,9.3.008,9.919.008,19.256c-.026,1.062,9.665,6.818,14.379,10.49a1,1,0,0,0,1.252-.036c14.01-9.931,14.351-9.532,14.327-10.454,0,0-.015-9.895,0-9.769Zm-1.872,8.1-4.838-2.945,4.838-3.367ZM21.507,13.58l-5.583-3.4V2.605L27.315,9.539Zm-6.52,4.535-4.838-3.367L14.987,11.8l4.838,2.945ZM14.051,2.6v7.582C11.88,11.533,10.045,12.658,8.5,13.6L2.659,9.539ZM6.74,14.66c-2.339,1.407-3.867,2.3-4.859,2.9V11.278ZM8.4,15.813l5.651,3.931v7.488L2.659,19.307Zm7.523,11.42V19.745l5.651-3.931,5.741,3.494Z" transform="translate(0.033 0.011)" fill="#33a6b5"/>
</svg>
